<mxfile host="app.diagrams.net" modified="2023-12-22T15:13:19.502Z" agent="Mozilla/5.0 (Macintosh; Intel Mac OS X 10.15; rv:120.0) Gecko/20100101 Firefox/120.0" etag="D_qPZKO76b_rnlW-xUC4" version="22.1.11" type="github">
  <diagram name="Page-1" id="x7MT0qRN6cu8qNjrc2um">
    <mxGraphModel dx="1804" dy="532" grid="1" gridSize="10" guides="1" tooltips="1" connect="1" arrows="1" fold="1" page="1" pageScale="1" pageWidth="850" pageHeight="1100" math="0" shadow="0">
      <root>
        <mxCell id="0" />
        <mxCell id="1" parent="0" />
        <mxCell id="8DM4_75zK0cVTB4kPDeA-1" value="Edit A Need&lt;br&gt;- adding a new what" style="rounded=1;whiteSpace=wrap;html=1;" parent="1" vertex="1">
          <mxGeometry x="140" y="230" width="200" height="90" as="geometry" />
        </mxCell>
        <mxCell id="8DM4_75zK0cVTB4kPDeA-2" value="Add A Should Do" style="rounded=1;whiteSpace=wrap;html=1;" parent="1" vertex="1">
          <mxGeometry x="140" y="350" width="200" height="90" as="geometry" />
        </mxCell>
        <mxCell id="8DM4_75zK0cVTB4kPDeA-3" value="Add a new need&lt;br&gt;" style="rounded=1;whiteSpace=wrap;html=1;" parent="1" vertex="1">
          <mxGeometry x="140" y="110" width="200" height="90" as="geometry" />
        </mxCell>
        <mxCell id="8DM4_75zK0cVTB4kPDeA-5" style="edgeStyle=orthogonalEdgeStyle;rounded=0;orthogonalLoop=1;jettySize=auto;html=1;entryX=0;entryY=0.5;entryDx=0;entryDy=0;exitX=0.5;exitY=0;exitDx=0;exitDy=0;" parent="1" source="8DM4_75zK0cVTB4kPDeA-4" target="8DM4_75zK0cVTB4kPDeA-3" edge="1">
          <mxGeometry relative="1" as="geometry">
            <Array as="points">
              <mxPoint x="-20" y="155" />
            </Array>
          </mxGeometry>
        </mxCell>
        <mxCell id="8DM4_75zK0cVTB4kPDeA-4" value="new need, new what" style="rounded=0;whiteSpace=wrap;html=1;" parent="1" vertex="1">
          <mxGeometry x="-80" y="180" width="120" height="60" as="geometry" />
        </mxCell>
        <mxCell id="m9-1bQluYizaZC3Oex78-2" style="edgeStyle=orthogonalEdgeStyle;rounded=0;orthogonalLoop=1;jettySize=auto;html=1;" edge="1" parent="1" source="m9-1bQluYizaZC3Oex78-1" target="8DM4_75zK0cVTB4kPDeA-1">
          <mxGeometry relative="1" as="geometry" />
        </mxCell>
        <mxCell id="m9-1bQluYizaZC3Oex78-1" value="existing need, new what" style="rounded=0;whiteSpace=wrap;html=1;" vertex="1" parent="1">
          <mxGeometry x="-80" y="270" width="120" height="60" as="geometry" />
        </mxCell>
        <mxCell id="m9-1bQluYizaZC3Oex78-4" style="edgeStyle=orthogonalEdgeStyle;rounded=0;orthogonalLoop=1;jettySize=auto;html=1;entryX=0;entryY=0.5;entryDx=0;entryDy=0;" edge="1" parent="1" source="m9-1bQluYizaZC3Oex78-3" target="8DM4_75zK0cVTB4kPDeA-2">
          <mxGeometry relative="1" as="geometry" />
        </mxCell>
        <mxCell id="m9-1bQluYizaZC3Oex78-3" value="existing need, existing what" style="rounded=0;whiteSpace=wrap;html=1;" vertex="1" parent="1">
          <mxGeometry x="-90" y="360" width="140" height="70" as="geometry" />
        </mxCell>
      </root>
    </mxGraphModel>
  </diagram>
</mxfile>
